<svg width="10000" height="10000" viewBox="0 0 10000 10000" fill="none" xmlns="http://www.w3.org/2000/svg">
<path d="M2077.64 3551.9H7922.36C8085.59 3551.9 8217.42 3416.92 8217.42 3253.7C8217.42 3090.47 8085.59 2958.64 7922.36 2958.64H2077.64C1911.27 2958.64 1782.57 3090.47 1782.57 3253.7C1782.57 3416.92 1914.41 3551.9 2077.64 3551.9ZM2727.4 5174.74H7285.16C7448.38 5174.74 7580.22 5039.76 7580.22 4876.53C7580.22 4710.17 7451.52 4578.33 7285.16 4578.33H2727.4C2561.03 4578.33 2432.34 4713.31 2432.34 4876.53C2432.34 5036.62 2564.17 5174.74 2727.4 5174.74ZM3364.61 6794.43H6647.95C6814.31 6794.43 6943.01 6659.46 6943.01 6496.23C6943.01 6333.01 6814.31 6201.17 6647.95 6201.17H3364.61C3198.24 6201.17 3069.54 6333.01 3069.54 6496.23C3069.54 6659.46 3198.24 6794.43 3364.61 6794.43Z" fill="#E5E7EB"/>
</svg>
