<svg width="10000" height="10000" viewBox="0 0 10000 10000" fill="none" xmlns="http://www.w3.org/2000/svg">
<path d="M4475.8 6797.57C4974.89 6797.57 5442.59 6646.9 5831.82 6389.51L7206.68 7767.51C7297.71 7855.4 7413.85 7899.34 7539.41 7899.34C7799.94 7899.34 7991.42 7695.31 7991.42 7437.92C7991.42 7318.64 7950.61 7202.5 7862.72 7114.61L6497.28 5742.88C6779.79 5341.1 6946.15 4854.56 6946.15 4327.22C6946.15 2968.05 5834.96 1856.86 4475.8 1856.86C3119.77 1856.86 2005.44 2968.05 2005.44 4327.22C2005.44 5686.38 3116.63 6797.57 4475.8 6797.57ZM4475.8 6138.39C3480.75 6138.39 2664.62 5322.27 2664.62 4327.22C2664.62 3332.17 3480.75 2516.04 4475.8 2516.04C5470.84 2516.04 6286.97 3332.17 6286.97 4327.22C6286.97 5322.27 5470.84 6138.39 4475.8 6138.39Z" fill="#E5E7EB"/>
</svg>
