<svg width="10000" height="10000" viewBox="0 0 10000 10000" fill="none" xmlns="http://www.w3.org/2000/svg">
<path d="M2567.31 6803.85C2435.48 6935.69 2429.2 7171.11 2570.45 7309.22C2708.57 7447.34 2943.99 7444.2 3075.82 7312.36L4996.86 5388.18L6921.04 7312.36C7056.01 7447.34 7288.29 7447.34 7426.41 7309.22C7561.38 7167.97 7564.52 6938.83 7426.41 6803.85L5505.37 4879.67L7426.41 2958.64C7564.52 2823.66 7564.52 2591.38 7426.41 2453.26C7285.16 2318.29 7056.01 2315.15 6921.04 2450.13L4996.86 4374.3L3075.82 2450.13C2943.99 2318.29 2705.43 2312.01 2570.45 2453.26C2432.34 2591.38 2435.48 2826.8 2567.31 2958.64L4491.49 4879.67L2567.31 6803.85Z" fill="#E5E7EB"/>
</svg>
